<?xml version="1.0" encoding="UTF-8" standalone="no"?>
<!-- Created with Inkscape (http://www.inkscape.org/) -->

<svg
   version="1.1"
   id="svg3870"
   xml:space="preserve"
   width="682.66669"
   height="682.66669"
   viewBox="0 0 682.66669 682.66669"
   xmlns="http://www.w3.org/2000/svg"
   xmlns:svg="http://www.w3.org/2000/svg"><defs
     id="defs3874"><clipPath
       clipPathUnits="userSpaceOnUse"
       id="clipPath3884"><path
         d="M 0,512 H 512 V 0 H 0 Z"
         id="path3882" /></clipPath></defs><g
     id="g3876"
     transform="matrix(1.3333333,0,0,-1.3333333,0,682.66667)"><g
       id="g3878"><g
         id="g3880"
         clip-path="url(#clipPath3884)"><g
           id="g3886"
           transform="translate(441.7202,181.02)"><path
             d="m 0,0 c 15.17,-27.12 23.74,-57.97 23.74,-90.7 0,-108.22 -93.76,-64.21 -209.43,-64.21 -115.66,0 -209.43,-44.01 -209.43,64.21 0,108.22 93.77,195.95 209.43,195.95 69.42,0 130.96,-31.6 169.06,-80.27"
             style="fill:none;stroke:#000000;stroke-width:15;stroke-linecap:round;stroke-linejoin:round;stroke-miterlimit:10;stroke-dasharray:none;stroke-opacity:1"
             id="path3888" /></g><g
           id="g3890"
           transform="translate(98.46,374.3799)"><path
             d="m 0,0 c 5.1,-14.92 8.06,-30.82 8.06,-43.89 0,-35.76 -22.16,-64.74 -49.51,-64.74 -27.34,0 -49.51,28.98 -49.51,64.74 0,35.75 22.17,92.72 49.51,92.72 10.78,0 20.75,-8.85 28.88,-21.77"
             style="fill:none;stroke:#000000;stroke-width:15;stroke-linecap:round;stroke-linejoin:round;stroke-miterlimit:10;stroke-dasharray:none;stroke-opacity:1"
             id="path3892" /></g><g
           id="g3894"
           transform="translate(231.3916,402.0205)"><path
             d="m 0,0 c 0,-35.751 -22.167,-64.733 -49.512,-64.733 -27.344,0 -49.511,28.982 -49.511,64.733 0,35.751 22.167,92.726 49.511,92.726 C -22.167,92.726 0,35.751 0,0 Z"
             style="fill:none;stroke:#000000;stroke-width:15;stroke-linecap:round;stroke-linejoin:round;stroke-miterlimit:10;stroke-dasharray:none;stroke-opacity:1"
             id="path3896" /></g><g
           id="g3898"
           transform="translate(405.4761,330.4854)"><path
             d="m 0,0 c 0,-35.751 22.167,-64.733 49.512,-64.733 27.345,0 49.512,28.982 49.512,64.733 0,35.751 -22.167,92.726 -49.512,92.726 C 22.167,92.726 0,35.751 0,0 Z"
             style="fill:none;stroke:#000000;stroke-width:15;stroke-linecap:round;stroke-linejoin:round;stroke-miterlimit:10;stroke-dasharray:none;stroke-opacity:1"
             id="path3900" /></g><g
           id="g3902"
           transform="translate(280.6084,402.0205)"><path
             d="m 0,0 c 0,-35.751 22.167,-64.733 49.512,-64.733 27.344,0 49.511,28.982 49.511,64.733 0,35.751 -22.167,92.726 -49.511,92.726 C 22.167,92.726 0,35.751 0,0 Z"
             style="fill:none;stroke:#000000;stroke-width:15;stroke-linecap:round;stroke-linejoin:round;stroke-miterlimit:10;stroke-dasharray:none;stroke-opacity:1"
             id="path3904" /></g></g></g></g></svg>
