<svg width="820" height="855" viewBox="0 0 820 855" fill="none" xmlns="http://www.w3.org/2000/svg">
<path d="M278.257 181.336C200.463 204.702 131.269 275.691 140.256 310.696C143.637 323.816 155.055 334.33 169.351 331.19C230.803 317.597 320.283 168.72 278.257 181.365V181.336Z" fill="#9D8CDD"/>
<path d="M164.427 340.578C149.39 340.578 135.925 329.62 131.625 312.888C120.651 270.064 196.043 196.765 275.677 172.806C284.96 169.993 290.417 172.895 293.353 175.797C300.946 183.29 297.179 196.291 295.963 200.586C284.337 240.892 220.66 328.88 171.249 339.838C168.935 340.341 166.652 340.608 164.398 340.608L164.427 340.578ZM280.125 190.042C204.17 213.172 141.976 281.614 148.886 308.475C151.081 317.004 158.14 324.527 167.423 322.483C197.467 315.82 238.188 270.567 262.894 229.313C275.766 207.782 279.473 195.373 280.125 190.042Z" fill="#4D12A0"/>
<path d="M232.464 336.284C159.652 390.806 147.552 511.845 209.597 533.138C299.819 564.057 354.42 462.624 372.601 427.056C376.634 419.148 384.049 410.826 393.925 402.356L613.399 489.367C663.344 452.792 724.262 339.897 690.185 288.84C656.107 237.783 639.053 288.84 587.952 237.783C536.82 186.726 468.665 118.669 383.486 135.698C298.276 152.727 153.691 240.567 180.384 409.375C180.384 409.375 178.663 399.336 201.145 367.913C215.974 347.183 232.464 336.284 232.464 336.284Z" fill="#9D8CDD"/>
<path d="M243.111 547.857C231.218 547.857 219.088 545.755 206.75 541.52C182.816 533.316 167.008 512.111 162.233 481.755C158.733 459.692 161.491 432.801 170.982 406.473C157.458 311.644 197.378 247.082 233.591 209.441C280.007 161.168 340.57 135.195 381.765 126.962C471.631 109.015 542.515 179.796 594.269 231.475C617.225 254.397 631.579 254.397 645.489 254.397C661.446 254.397 677.936 254.397 697.629 283.865C720.733 318.485 703.709 370.253 691.49 398.062C673.724 438.487 645.163 477.106 618.708 496.504C616.246 498.311 613.013 498.725 610.166 497.6L395.794 412.603C388.527 419.296 383.426 425.516 380.579 431.083C373.283 445.328 353.946 483.177 324.317 511.46C298.899 535.715 271.702 547.887 243.141 547.887L243.111 547.857ZM186.82 415.506C179.138 438.043 176.914 460.728 179.79 478.972C181.956 492.595 189.044 516.643 212.504 524.698C269.063 544.096 320.253 509.861 364.682 422.969C369.071 414.351 376.961 405.14 388.112 395.574C390.633 393.412 394.133 392.82 397.188 394.064L611.975 479.209C659.31 441.123 711.746 337.113 682.77 293.727C668.386 272.166 659.251 272.167 645.46 272.167C629.592 272.167 609.84 272.167 581.664 244.032C530.028 192.471 465.758 128.294 385.235 144.376C302.696 160.871 183.29 237.013 186.137 374.222C188.391 370.697 190.972 366.877 193.938 362.731C209.538 340.904 226.859 329.324 227.6 328.851C231.604 326.185 237.002 327.222 239.79 331.131C242.548 335.07 241.718 340.489 237.862 343.362C214.906 360.569 198.861 384.32 189.311 408.783C189.489 411.33 188.54 413.758 186.849 415.506H186.82Z" fill="#4D12A0"/>
<path d="M659.251 322.187C654.98 322.187 650.917 320.233 647.921 316.442L646.676 314.872C639.795 306.284 632.706 297.37 636.325 287.685C639.32 279.659 648.247 274.802 666.161 271.486C675.86 269.679 681.465 274.951 683.452 280.459C687.99 293.016 677.58 314.102 666.784 320.085C664.293 321.477 661.712 322.128 659.221 322.128L659.251 322.187ZM652.044 293.431C652.637 295.77 656.819 301.012 659.666 304.566L659.903 304.892C663.373 301.901 667.703 292.838 668.03 288.011C656.315 290.291 652.874 292.631 652.014 293.431H652.044Z" fill="#4D12A0"/>
<path d="M432.867 351.566C439.481 344.192 446.866 338.15 453.243 332.375C485.867 302.759 490.998 332.375 490.138 376.857C488.833 444.914 539.045 433.808 573.123 450.837C607.2 467.836 607.2 484.865 619.242 520.73C631.283 556.624 646.142 578.391 668.653 586.95C680.605 591.481 685.321 596.901 670.433 621.57C660.853 637.415 666.429 640.169 648.989 669.992C628.228 705.53 621.585 707.011 560.014 729.223C560.014 729.223 490.286 745.334 519.797 811.317C521.487 815.078 523.474 819.076 525.847 823.282C523.89 823.726 521.902 824.2 519.886 824.614C413.649 847.566 302.963 827.369 212.148 772.254C205.653 768.315 199.277 764.199 192.989 759.905C191.773 759.075 190.587 758.246 189.371 757.417C181.719 752.086 174.245 746.459 166.949 740.595C219.83 731.414 285.286 717.999 296.052 690.723C311.267 652.045 286.176 602.468 301.984 545.607C316.813 492.299 335.558 463.394 367.233 421.221C376.131 409.375 395.527 399.869 399.857 394.568C408.458 384.084 423.822 361.665 432.867 351.566Z" fill="#BFACE8"/>
<path d="M433.134 842.68C354.48 842.68 275.528 821.09 207.521 779.836C201.056 775.926 194.472 771.662 187.947 767.219L184.328 764.732C176.647 759.371 168.936 753.596 161.343 747.495C158.614 745.304 157.428 741.72 158.318 738.344C159.178 734.968 161.966 732.421 165.406 731.799C199.098 725.965 277.96 712.253 287.748 687.435C294.332 670.673 292.375 650.89 290.121 627.967C287.629 602.705 284.812 574.067 293.383 543.178C309.221 486.257 330.071 455.812 360.085 415.831C366.402 407.42 376.397 400.609 384.435 395.13C387.608 392.968 391.968 390.007 392.947 388.852C396.446 384.587 401.221 378.131 406.263 371.29C413.382 361.665 420.737 351.684 426.194 345.583C431.533 339.601 437.346 334.477 442.477 329.976C444.108 328.554 445.68 327.133 447.222 325.741C452.412 321.032 468.161 306.728 482.338 313.154C497.048 319.818 499.629 343.481 499.006 376.976C498.175 420.362 518.551 425.545 546.756 432.742C556.899 435.318 567.398 438.013 577.067 442.841C609.276 458.922 614.674 476.336 622.83 502.723C624.254 507.373 625.826 512.378 627.635 517.857C639.32 552.714 652.934 571.431 671.767 578.598C678.084 580.997 684.906 584.492 687.575 592.162C690.393 600.336 687.634 610.168 678.025 626.101C674.496 631.965 673.428 635.519 671.945 640.435C669.809 647.602 667.111 656.487 656.671 674.404C634.931 711.601 626.122 714.8 568.674 735.472L563.009 737.515C562.683 737.633 562.327 737.722 562.001 737.811C561.763 737.87 535.041 744.386 525.135 764.406C519.352 776.074 520.301 790.616 527.893 807.615C529.613 811.406 531.512 815.197 533.588 818.839C534.952 821.297 535.1 824.229 533.973 826.806C532.846 829.382 530.563 831.248 527.804 831.87L526.381 832.196C524.838 832.551 523.237 832.907 521.665 833.232C492.6 839.511 462.882 842.591 433.134 842.591V842.68ZM188.332 745.748C190.379 747.229 192.425 748.71 194.472 750.131L198.031 752.589C204.289 756.854 210.576 760.911 216.775 764.673C305.039 818.247 412.581 837.231 512.649 817.062C512.323 816.352 511.996 815.67 511.7 814.96C501.794 792.807 500.993 773.143 509.297 756.499C522.199 730.585 552.717 721.937 557.463 720.723L562.683 718.828C618.322 698.778 622.86 697.149 641.337 665.52C650.739 649.439 652.963 641.975 654.951 635.401C656.582 629.922 658.154 624.769 662.84 616.98C672.034 601.758 670.877 598.174 670.818 598.026C670.729 597.878 669.958 596.96 665.509 595.272C641.219 586.032 624.343 563.938 610.819 523.573C608.95 517.975 607.349 512.822 605.866 508.054C598.125 482.94 594.566 471.508 569.148 458.833C561.17 454.835 552.035 452.525 542.396 450.067C514.666 442.989 480.143 434.223 481.27 376.739C482.071 334.774 476.228 329.976 475.042 329.443C475.042 329.443 471.008 328.317 459.234 339.009C457.632 340.46 456.001 341.911 454.31 343.392C449.328 347.804 444.167 352.336 439.511 357.548C434.587 363.056 427.499 372.681 420.618 381.981C415.428 389 410.534 395.633 406.738 400.254C404.247 403.304 400.154 406.088 394.489 409.938C387.549 414.676 378.918 420.54 374.351 426.611C345.552 464.963 325.562 494.105 310.555 548.035C302.874 575.696 305.395 601.432 307.856 626.309C310.229 650.445 312.483 673.249 304.327 694.01C294.184 719.716 251.09 733.872 188.303 745.778L188.332 745.748Z" fill="#4D12A0"/>
<path d="M717.174 256.855C720.318 274.121 741.227 302.76 749.976 302.76C758.725 302.76 760.475 302.434 759.586 289.492L717.174 256.855Z" fill="#FCEBA7"/>
<path d="M715.009 241.663C710.204 224.871 741.227 136.913 758.726 136.913C776.195 136.913 767.475 154.356 776.195 171.829C784.914 189.302 811.162 215.483 802.413 224.19C793.664 232.896 769.195 254.486 759.586 252.443C759.586 252.443 778.716 249.452 785.418 252.413C797.875 257.892 820.089 283.835 802.413 293.194C784.825 302.523 751.4 282.591 736.63 276.283C727.228 272.256 717.827 251.465 715.009 241.633V241.663Z" fill="#FCEBA7"/>
<path d="M760.713 258.01C759.912 258.01 759.17 257.951 758.429 257.774C755.463 257.152 753.565 254.22 754.217 251.258C754.84 248.297 757.776 246.401 760.742 247.053C765.28 248.03 784.024 234.792 798.557 220.28C801.108 217.733 788.948 200.764 784.38 194.367C779.487 187.526 774.415 180.447 771.301 174.228C767.534 166.706 766.644 159.332 765.962 153.379C764.776 143.25 764.153 142.332 758.726 142.332C756.62 142.48 747.722 150.684 735.266 185.097C726.576 209.115 720.496 234.17 720.496 241.603C720.496 244.624 718.034 247.082 715.009 247.082C711.984 247.082 709.522 244.624 709.522 241.603C709.522 226.766 734.435 131.375 758.726 131.375C774.415 131.375 775.779 142.865 776.847 152.105C777.47 157.466 778.211 163.507 781.118 169.342C783.846 174.761 788.651 181.514 793.307 187.999C804.696 203.903 815.433 218.918 806.328 228.04C803.124 231.238 775.868 257.981 760.742 257.981L760.713 258.01Z" fill="#F4E08C"/>
<path d="M749.976 308.238C736.63 308.238 714.89 274.921 711.776 257.833C711.242 254.842 713.2 251.999 716.195 251.465C719.22 250.932 722.038 252.887 722.572 255.878C725.538 272.226 744.579 296.303 750.125 297.281C751.163 297.281 753.091 297.281 754.158 297.133C754.307 296.215 754.425 294.201 754.129 289.877C753.921 286.856 756.205 284.25 759.23 284.043C762.225 283.835 764.865 286.116 765.073 289.136C765.606 297.014 765.31 301.605 762.255 304.862C759.111 308.238 754.662 308.238 749.976 308.238Z" fill="#F4E08C"/>
<path d="M794.405 300.568C784.114 300.568 772.487 294.941 761.899 289.818C752.972 285.494 742.829 280.577 737.757 281.644C734.762 282.266 731.885 280.341 731.262 277.379C730.639 274.417 732.567 271.515 735.533 270.893C744.252 269.087 755.137 274.358 766.674 279.926C778.745 285.76 792.448 292.394 799.803 288.366C802.176 287.063 802.561 285.79 802.413 284.131C801.701 275.069 784.974 260.172 777.648 257.537C774.801 256.5 773.318 253.361 774.356 250.518C775.394 247.675 778.508 246.194 781.385 247.23C791.676 250.932 812.26 268.702 813.387 283.302C813.861 289.581 810.925 294.793 805.082 297.991C801.79 299.798 798.201 300.538 794.435 300.538L794.405 300.568Z" fill="#F4E08C"/>
<path d="M711.094 250.192C709.7 250.192 708.276 249.659 707.209 248.593C697.006 238.405 682.829 180.98 692.32 152.638C693.269 149.766 696.383 148.226 699.26 149.173C702.137 150.121 703.679 153.231 702.73 156.103C694.663 180.299 707.98 233.844 714.979 240.863C717.115 242.995 717.115 246.46 714.979 248.622C713.911 249.688 712.517 250.222 711.094 250.222V250.192Z" fill="#F4E08C"/>
<path d="M708.543 250.547C707.654 250.547 706.734 250.34 705.904 249.866C695.879 244.328 675.83 207.22 676.631 187.259C676.749 184.238 679.181 181.928 682.325 182.017C685.35 182.136 687.693 184.683 687.575 187.703C686.833 205.65 706.141 237.457 711.183 240.271C713.823 241.752 714.772 245.069 713.318 247.734C712.31 249.541 710.441 250.547 708.514 250.547H708.543Z" fill="#F4E08C"/>
<path d="M465.106 416.868C463.504 416.868 461.962 416.009 461.161 414.499C456.623 405.97 458.195 391.073 459.619 377.953C459.767 376.502 459.916 375.081 460.064 373.718C453.183 382.633 442.031 399.513 432.689 414.706C431.414 416.809 428.655 417.46 426.579 416.187C424.474 414.913 423.821 412.159 425.096 410.086C457.691 356.985 462.318 358.259 465.669 359.177C466.559 359.414 469.495 360.569 469.555 364.834C469.584 368.536 469.08 373.333 468.487 378.901C467.36 389.563 465.788 404.193 469.05 410.323C470.207 412.485 469.377 415.18 467.212 416.335C466.559 416.69 465.818 416.868 465.135 416.868H465.106Z" fill="#4D12A0"/>
<path d="M662.454 86.5661C415.606 -69.2412 87.7896 70.7514 37.3997 358.97C11.834 501.094 69.3123 652.904 183.142 742.313C350.031 878.07 603.166 854.852 744.49 692.944C772.339 661.64 795.651 626.131 813.119 587.72C813.95 585.913 816.056 585.114 817.865 585.943C819.615 586.742 820.415 588.756 819.733 590.533C788.355 670.525 730.817 740.506 657.768 787.714C538.837 865.928 378.859 876.767 249.636 816.352C50.924 725.077 -47.8391 496.415 22.7187 289.58C71.1808 142.362 205.178 28.49 358.572 5.38992C466.174 -12.2017 580.211 13.7119 668.504 77.6518C673.991 81.946 668.445 90.1199 662.454 86.5661Z" fill="#4D12A0"/>
</svg>
